<svg width="15" height="15" viewBox="0 0 15 15" fill="none" xmlns="http://www.w3.org/2000/svg">
<g clip-path="url(#clip0_1236_21521)">
<path d="M11.5 6H13C13.2652 6 13.5196 6.10536 13.7071 6.29289C13.8946 6.48043 14 6.73478 14 7V13C14 13.2652 13.8946 13.5196 13.7071 13.7071C13.5196 13.8946 13.2652 14 13 14H9.5" stroke="#00DA8E" stroke-linecap="round" stroke-linejoin="round"/>
<path d="M8 6H2C1.44772 6 1 6.44772 1 7V11C1 11.5523 1.44772 12 2 12H8C8.55228 12 9 11.5523 9 11V7C9 6.44772 8.55228 6 8 6Z" stroke="#00DA8E" stroke-linecap="round" stroke-linejoin="round"/>
<path d="M5 12V14" stroke="#00DA8E" stroke-linecap="round" stroke-linejoin="round"/>
<path d="M3 14H7" stroke="#00DA8E" stroke-linecap="round" stroke-linejoin="round"/>
</g>
<defs>
<clipPath id="clip0_1236_21521">
<rect width="14" height="14" fill="white" transform="translate(0.5 0.5)"/>
</clipPath>
</defs>
</svg>
