<svg width="48" height="48" viewBox="0 0 48 48" fill="none" xmlns="http://www.w3.org/2000/svg">
<path d="M24.0141 4.32272C30.4303 4.32272 31.1902 4.35085 33.7135 4.46337C36.0586 4.56652 37.325 4.96034 38.1692 5.28853C39.2855 5.71987 40.0922 6.24497 40.9271 7.07951C41.7714 7.92342 42.2873 8.72045 42.7188 9.8363C43.0471 10.6802 43.4411 11.9555 43.5443 14.2903C43.6568 16.822 43.685 17.5816 43.685 23.9859C43.685 30.3997 43.6568 31.1592 43.5443 33.6816C43.4411 36.0258 43.0471 37.2917 42.7188 38.1356C42.2873 39.2514 41.762 40.0578 40.9271 40.8924C40.0829 41.7363 39.2855 42.252 38.1692 42.6833C37.325 43.0115 36.0492 43.4054 33.7135 43.5085C31.1808 43.621 30.421 43.6492 24.0141 43.6492C17.5978 43.6492 16.838 43.621 14.3146 43.5085C11.9695 43.4054 10.7031 43.0115 9.8589 42.6833C8.74262 42.252 7.9359 41.7269 7.10104 40.8924C6.25679 40.0484 5.74086 39.2514 5.30936 38.1356C4.98104 37.2917 4.58706 36.0164 4.48388 33.6816C4.37131 31.1498 4.34317 30.3903 4.34317 23.9859C4.34317 17.5722 4.37131 16.8127 4.48388 14.2903C4.58706 11.9461 4.98104 10.6802 5.30936 9.8363C5.74086 8.72045 6.26617 7.91405 7.10104 7.07951C7.94528 6.23559 8.74262 5.71987 9.8589 5.28853C10.7031 4.96034 11.9789 4.56652 14.3146 4.46337C16.838 4.35085 17.5978 4.32272 24.0141 4.32272ZM24.0141 0C17.4946 0 16.6785 0.0281305 14.1176 0.140652C11.5662 0.253174 9.812 0.665755 8.29236 1.2565C6.70706 1.87537 5.36564 2.69115 4.03361 4.03204C2.6922 5.36355 1.8761 6.70444 1.25699 8.27974C0.666015 9.80817 0.253273 11.5523 0.140707 14.1028C0.0281415 16.672 0 17.4878 0 24.0047C0 30.5216 0.0281415 31.3374 0.140707 33.8972C0.253273 36.4477 0.666015 38.2012 1.25699 39.7203C1.8761 41.3049 2.6922 42.6458 4.03361 43.9773C5.36564 45.3089 6.70706 46.134 8.28298 46.7435C9.812 47.3342 11.5568 47.7468 14.1083 47.8593C16.6691 47.9719 17.4852 48 24.0047 48C30.5241 48 31.3402 47.9719 33.9011 47.8593C36.4526 47.7468 38.2068 47.3342 39.7264 46.7435C41.3023 46.134 42.6437 45.3089 43.9758 43.9773C45.3078 42.6458 46.1333 41.3049 46.743 39.7296C47.334 38.2012 47.7467 36.4571 47.8593 33.9066C47.9719 31.3468 48 30.531 48 24.0141C48 17.4972 47.9719 16.6814 47.8593 14.1215C47.7467 11.571 47.334 9.81754 46.743 8.2985C46.152 6.70443 45.3359 5.36355 43.9945 4.03204C42.6625 2.70053 41.3211 1.87537 39.7452 1.26587C38.2161 0.675132 36.4714 0.262551 33.9199 0.150029C31.3496 0.0281305 30.5335 0 24.0141 0Z" fill="#00DA8E"/>
<path d="M24.0141 11.6741C17.2038 11.6741 11.6787 17.1971 11.6787 24.0047C11.6787 30.8123 17.2038 36.3352 24.0141 36.3352C30.8243 36.3352 36.3494 30.8123 36.3494 24.0047C36.3494 17.1971 30.8243 11.6741 24.0141 11.6741ZM24.0141 32.0031C19.5959 32.0031 16.0125 28.4212 16.0125 24.0047C16.0125 19.5882 19.5959 16.0062 24.0141 16.0062C28.4323 16.0062 32.0156 19.5882 32.0156 24.0047C32.0156 28.4212 28.4323 32.0031 24.0141 32.0031Z" fill="#00DA8E"/>
<path d="M39.717 11.1865C39.717 12.7805 38.4225 14.0652 36.8372 14.0652C35.2425 14.0652 33.9574 12.7711 33.9574 11.1865C33.9574 9.5924 35.2519 8.30777 36.8372 8.30777C38.4225 8.30777 39.717 9.60177 39.717 11.1865Z" fill="#00DA8E"/>
</svg>
